<?xml version="1.0" standalone="no"?><!DOCTYPE svg PUBLIC "-//W3C//DTD SVG 1.1//EN" "http://www.w3.org/Graphics/SVG/1.1/DTD/svg11.dtd"><svg t="1718028958193" class="icon" viewBox="0 0 1024 1024" version="1.1" xmlns="http://www.w3.org/2000/svg" p-id="6328" xmlns:xlink="http://www.w3.org/1999/xlink" width="200" height="200"><path d="M243.04 528h528.992c-48.032-57.728-115.488-99.904-188.288-117.12a11.44 11.44 0 0 1-8.768-10.112 11.456 11.456 0 0 1 6.72-11.584c66.048-29.568 108.704-95.168 108.704-167.072 0-100.928-82.048-183.04-183.04-183.04-100.96 0-183.04 82.112-183.04 183.04 0 71.904 42.688 137.504 108.704 167.072a11.52 11.52 0 0 1-2.048 21.696c-72.544 17.184-139.904 59.36-187.936 117.12zM155.52 695.072c-37.76 0-68.48 30.72-68.48 68.448 0 37.76 30.72 68.48 68.48 68.48 37.76 0 68.48-30.72 68.48-68.48a68.544 68.544 0 0 0-68.48-68.448z m704 0c-37.76 0-68.48 30.72-68.48 68.448 0 37.76 30.72 68.48 68.48 68.48 37.76 0 68.48-30.72 68.48-68.48a68.544 68.544 0 0 0-68.48-68.448zM167.04 976H848v-121.664a91.712 91.712 0 0 1-80-90.816c0-46.56 35.008-85.12 80-90.816v-121.632H167.04v121.632a91.68 91.68 0 0 1 80 90.816 91.648 91.648 0 0 1-80 90.816V976z m692.48 23.072h-704A11.52 11.52 0 0 1 144 987.52v-133.184a91.648 91.648 0 0 1-80-90.816 91.68 91.68 0 0 1 80-90.816V539.52a11.52 11.52 0 0 1 11.52-11.52h58.176c45.824-61.312 111.552-108.096 184.032-131.68-59.36-37.472-96.448-103.072-96.448-174.24C301.28 108.448 393.728 16 507.36 16c113.632 0 206.08 92.448 206.08 206.08 0 71.168-37.056 136.736-96.448 174.208C689.696 419.936 755.52 466.72 801.344 528h58.176a11.52 11.52 0 0 1 11.52 11.52v133.184c45.024 5.696 80 44.256 80 90.816a91.68 91.68 0 0 1-80 90.816v133.184a11.52 11.52 0 0 1-11.52 11.552z" fill="#000000" p-id="6329"></path><path d="M477.152 928a1.6 1.6 0 0 0-1.6 1.6v19.84a1.6 1.6 0 0 0 1.6 1.6l286.4 0.032 13.696-11.68-13.696-11.392h-286.4z m0.032-48a1.6 1.6 0 0 0-1.6 1.6v19.84a1.6 1.6 0 0 0 1.6 1.6l158.368 0.032 13.696-11.68-13.696-11.392h-158.368z m-0.064-48a1.6 1.6 0 0 0-1.6 1.6v19.84a1.6 1.6 0 0 0 1.6 1.6l94.432 0.032 13.696-11.648-13.696-11.424H477.12z m0.064-48a1.6 1.6 0 0 0-1.6 1.6v19.84a1.6 1.6 0 0 0 1.6 1.6l190.4 0.032 13.664-11.68-13.664-11.392h-190.4z" fill="#4F6E9A" p-id="6330"></path><path d="M418.384 727.936l-13.696 11.392 13.696 11.68 30.4-0.032a1.6 1.6 0 0 0 1.6-1.6v-19.84a1.6 1.6 0 0 0-1.6-1.6h-30.4z m-32-48l-13.696 11.392 13.696 11.68 62.4-0.032a1.6 1.6 0 0 0 1.6-1.6v-19.84a1.6 1.6 0 0 0-1.6-1.6h-62.4z m-48-48l-13.696 11.392 13.696 11.68 110.4-0.032a1.6 1.6 0 0 0 1.6-1.6v-19.84a1.6 1.6 0 0 0-1.6-1.6h-110.4z m-80-48l-13.696 11.392 13.696 11.68 190.4-0.032a1.6 1.6 0 0 0 1.6-1.6v-19.84a1.6 1.6 0 0 0-1.6-1.6h-190.4z" fill="#CC2444" p-id="6331"></path></svg>