<?xml version="1.0" standalone="no"?><!DOCTYPE svg PUBLIC "-//W3C//DTD SVG 1.1//EN" "http://www.w3.org/Graphics/SVG/1.1/DTD/svg11.dtd"><svg t="1718029110212" class="icon" viewBox="0 0 1024 1024" version="1.1" xmlns="http://www.w3.org/2000/svg" p-id="11041" xmlns:xlink="http://www.w3.org/1999/xlink" width="200" height="200"><path d="M65.333 159.585v626.899h895.021V159.583H65.333z m701.802 622.847c-57.43 0-108.81-25.873-143.145-66.589h-22.846v59.822H424.545v-59.822H135.973v-114.78h228.513v-70.64H135.973v-114.78h228.513v-70.64H135.973v-114.78h288.572v-59.822h176.599v59.822h288.572v114.78H661.202v70.64h53.114c16.752-4.919 34.475-7.57 52.818-7.57s36.066 2.651 52.818 7.57h69.762v38.151c39.571 34.32 64.598 84.966 64.598 141.459 0.001 103.376-83.801 187.179-187.177 187.179z" fill="#839495" p-id="11042"></path><path d="M579.956 595.253c0-64.052 32.18-120.579 81.246-154.325V324.303h-60.058V170.401H424.545v153.902h-60.058V626.16h60.058v149.505h176.599v-93.852c-13.528-25.888-21.188-55.327-21.188-86.56z" fill="#819292" p-id="11043"></path><path d="M889.715 453.795c-19.991-17.338-43.698-30.498-69.762-38.151-16.752-4.919-34.475-7.57-52.818-7.57s-36.066 2.651-52.818 7.57a186.36 186.36 0 0 0-53.114 25.285c-49.066 33.745-81.246 90.273-81.246 154.325 0 31.232 7.66 60.672 21.188 86.56a187.49 187.49 0 0 0 22.846 34.03c34.336 40.716 85.715 66.589 143.145 66.589 103.376 0 187.179-83.803 187.179-187.179-0.002-56.493-25.029-107.14-64.6-141.459z m-149.07 276.318V574.542l-44.084 44.084-37.462-37.462 112.162-112.162 37.462 37.462-0.896 0.896 67.344 67.344-37.462 37.462-44.084-44.084v162.032h-52.98z" fill="#E8B23A" p-id="11044"></path><path d="M793.625 568.081l44.084 44.084 37.462-37.463-67.344-67.343 0.896-0.896-37.462-37.462-112.163 112.162 37.463 37.463 44.084-44.084v155.571h52.98z" fill="#FFFFFF" p-id="11045"></path></svg>