<?xml version="1.0" standalone="no"?><!DOCTYPE svg PUBLIC "-//W3C//DTD SVG 1.1//EN" "http://www.w3.org/Graphics/SVG/1.1/DTD/svg11.dtd"><svg t="1718029019094" class="icon" viewBox="0 0 1024 1024" version="1.1" xmlns="http://www.w3.org/2000/svg" p-id="7502" xmlns:xlink="http://www.w3.org/1999/xlink" width="200" height="200"><path d="M54.867389 175.766903v185.616735h20.847217v-177.87075l442.429585 164.434815 468.01046-173.949944L518.144191 0 57.019051 171.415764h-2.151662v0.81285l-4.781472 1.769145 4.781472 1.769144z" fill="#3488C9" p-id="7503"></path><path d="M518.144191 370.038102L246.269705 268.957789v243.185655h553.359731V265.371685l-281.485245 104.666417zM941.543519 553.311916l24.815838-21.803511h-793.724318v152.62458h793.724318l-24.815838-21.803512a72.487112 72.487112 0 0 1 0-109.017557zM809.718341 832.35861a77.029511 77.029511 0 0 1 0-106.72245L831.569668 702.876354H37.845349v152.62458h793.724319zM968.224131 871.37542h-793.724318v152.62458h793.724318l-32.992155-32.466194a61.489727 61.489727 0 0 1 0-87.644378z" fill="#3488C9" p-id="7504"></path></svg>