<?xml version="1.0" standalone="no"?><!DOCTYPE svg PUBLIC "-//W3C//DTD SVG 1.1//EN" "http://www.w3.org/Graphics/SVG/1.1/DTD/svg11.dtd"><svg t="1718029064333" class="icon" viewBox="0 0 1024 1024" version="1.1" xmlns="http://www.w3.org/2000/svg" p-id="8762" xmlns:xlink="http://www.w3.org/1999/xlink" width="200" height="200"><path d="M904 211.2H120c-8.8 0-16-7.2-16-16V20c0-8.8 7.2-16 16-16h784c8.8 0 16 7.2 16 16v175.2c0 8.8-7.2 16-16 16z m-768-32h752V36H136v143.2z" fill="#13227a" p-id="8763"></path><path d="M904 1020H120c-8.8 0-16-7.2-16-16V195.2c0-8.8 7.2-16 16-16h784c8.8 0 16 7.2 16 16v808.8c0 8.8-7.2 16-16 16z m-768-32h752V211.2H136v776.8z" fill="#13227a" p-id="8764"></path><path d="M251.2 1012c-4.8 0-8-3.2-8-8V195.2c0-4.8 3.2-8 8-8s8 3.2 8 8v808.8c0 4.8-3.2 8-8 8zM558.4 1012c-4.8 0-8-3.2-8-8V195.2c0-4.8 3.2-8 8-8s8 3.2 8 8v808.8c0 4.8-4 8-8 8zM665.6 1012c-4.8 0-8-3.2-8-8V195.2c0-4.8 3.2-8 8-8s8 3.2 8 8v808.8c0 4.8-4 8-8 8zM772.8 1012c-4.8 0-8-3.2-8-8V195.2c0-4.8 3.2-8 8-8s8 3.2 8 8v808.8c0 4.8-4 8-8 8zM344 61.6c-8 0-14.4 1.6-20 5.6-5.6 4-8 9.6-8 16.8 0 7.2 2.4 12.8 6.4 16 4 3.2 10.4 6.4 20 8 5.6 1.6 9.6 2.4 11.2 4 1.6 1.6 3.2 3.2 3.2 5.6 0 2.4-0.8 4-2.4 5.6-1.6 1.6-4 2.4-7.2 2.4-7.2 0-15.2-4-23.2-11.2L312.8 128c9.6 8.8 20.8 13.6 32.8 13.6 8.8 0 15.2-2.4 20.8-6.4 5.6-4 8-9.6 8-16.8s-2.4-12-6.4-16-9.6-6.4-16.8-8c-7.2-1.6-12-3.2-14.4-4.8-2.4-1.6-3.2-3.2-3.2-5.6 0-2.4 0.8-4 2.4-5.6 1.6-1.6 4-2.4 7.2-2.4 7.2 0 14.4 2.4 20.8 8L372.8 72c-4-3.2-8-5.6-13.6-7.2-4.8-2.4-9.6-3.2-15.2-3.2zM425.6 61.6c-11.2 0-20.8 4-28.8 11.2-8 8-12 17.6-12 28.8s4 20.8 11.2 28.8c8 7.2 17.6 11.2 29.6 11.2s22.4-4.8 31.2-15.2l-11.2-11.2c-5.6 6.4-12 10.4-20.8 10.4-6.4 0-11.2-2.4-16-6.4-4-4-6.4-10.4-6.4-17.6 0-7.2 2.4-12.8 7.2-16.8 4.8-4 10.4-6.4 16.8-6.4 8 0 15.2 3.2 20.8 10.4l10.4-12c-8.8-10.4-19.2-15.2-32-15.2zM504.8 61.6c-11.2 0-20.8 4-28.8 11.2-8 8-12 16.8-12 28.8 0 11.2 4 20.8 12 28.8s17.6 11.2 28.8 11.2 20.8-4 28.8-11.2c8-8 12-16.8 12-28.8 0-11.2-4-20.8-12-28.8-7.2-7.2-16.8-11.2-28.8-11.2z m0.8 64.8c-6.4 0-12-2.4-16-7.2-4.8-4.8-6.4-10.4-6.4-17.6s2.4-12.8 6.4-17.6c4.8-4.8 9.6-7.2 16-7.2s12 2.4 16 7.2c4.8 4.8 6.4 10.4 6.4 17.6s-2.4 12.8-6.4 17.6c-4.8 4.8-9.6 7.2-16 7.2zM625.6 63.2H608v43.2c0 6.4-1.6 11.2-4 14.4-3.2 3.2-6.4 5.6-11.2 5.6-4.8 0-8.8-1.6-12-5.6-3.2-3.2-4-8.8-4-14.4V63.2h-17.6v43.2c0 11.2 3.2 20 9.6 25.6 6.4 6.4 14.4 8.8 24 8.8s17.6-3.2 24-8.8c6.4-6.4 9.6-14.4 9.6-25.6V63.2h-0.8zM673.6 63.2h-29.6v77.6h17.6v-24.8h12l16.8 24.8H712l-20-28c9.6-4 14.4-12 14.4-24 0-8.8-2.4-15.2-8-20-4.8-3.2-12.8-5.6-24.8-5.6z m-12.8 38.4V78.4h12.8c5.6 0 9.6 0.8 12 2.4 2.4 1.6 3.2 4.8 3.2 8.8 0 4-0.8 7.2-3.2 8.8-2.4 1.6-6.4 3.2-12 3.2h-12.8z" fill="#13227a" p-id="8765"></path><path d="M904 327.2H120c-4.8 0-8-3.2-8-8s3.2-8 8-8h784c4.8 0 8 3.2 8 8 0 4-3.2 8-8 8zM904 467.2H120c-4.8 0-8-3.2-8-8s3.2-8 8-8h784c4.8 0 8 3.2 8 8s-3.2 8-8 8zM904 608H120c-4.8 0-8-3.2-8-8s3.2-8 8-8h784c4.8 0 8 3.2 8 8 0 4-3.2 8-8 8zM904 748H120c-4.8 0-8-3.2-8-8s3.2-8 8-8h784c4.8 0 8 3.2 8 8s-3.2 8-8 8zM904 888H120c-4.8 0-8-3.2-8-8s3.2-8 8-8h784c4.8 0 8 3.2 8 8s-3.2 8-8 8zM218.4 116h-19.2c-4.8 0-8-3.2-8-8s3.2-8 8-8h19.2c4.8 0 8 3.2 8 8 0 4-4 8-8 8zM824.8 116h-19.2c-4.8 0-8-3.2-8-8s3.2-8 8-8h19.2c4.8 0 8 3.2 8 8 0 4-3.2 8-8 8z" fill="#13227a" p-id="8766"></path></svg>